# AST/ASF file generated using VICON BodyLanguage
# -----------------------------------------------
:version 1.10
:name VICON
:units
  mass 1.0
  length 0.45
  angle deg
:documentation
   .ast/.asf automatically generated from VICON data using
   VICON BodyBuilder and BodyLanguage model FoxedUp or BRILLIANT.MOD
:root
   order TX TY TZ RX RY RZ
   axis XYZ
   position 0 0 0  
   orientation 0 0 0 
:bonedata
  begin
     id 1 
     name lhipjoint
     direction 0.627457 -0.725269 0.283342 
     length 2.53237 
     axis 0 0 0  XYZ
  end
  begin
     id 2 
     name lfemur
     direction 0.34202 -0.939693 0  
     length 7.32496  
     axis 0 0 20  XYZ
    dof rx ry rz
    limits (-160.0 20.0)
           (-70.0 70.0)
           (-60.0 70.0)
  end
  begin
     id 3 
     name ltibia
     direction 0.34202 -0.939693 0   
     length 7.69674   
     axis 0 0 20   XYZ
    dof rx
    limits (-10.0 170.0)
  end
  begin
     id 4 
     name lfoot
     direction 0.127289 -0.349722 0.928166   
     length 1.8612   
     axis -90 7.62852e-016 20   XYZ
    dof rx rz
    limits (-45.0 90.0)
           (-70.0 20.0)
  end
  begin
     id 5 
     name ltoes
     direction 1.53561e-011 -4.21864e-011 1   
     length 0.925608   
     axis -90 7.62852e-016 20   XYZ
    dof rx
    limits (-90.0 20.0)
  end
  begin
     id 6 
     name rhipjoint
     direction -0.609094 -0.738725 0.288599   
     length 2.48624  
     axis 0 0 0  XYZ 
  end
  begin
     id 7 
     name rfemur
     direction -0.34202 -0.939693 0   
     length 7.44259   
     axis 0 0 -20   XYZ
    dof rx ry rz
    limits (-160.0 20.0)
           (-70.0 70.0)
           (-70.0 60.0)
  end
  begin
     id 8 
     name rtibia
     direction -0.34202 -0.939693 0   
     length 7.7781   
     axis 0 0 -20   XYZ
    dof rx
    limits (-10.0 170.0)
 end
 begin
     id 9 
     name rfoot
     direction -0.107015 -0.294021 0.949789   
     length 2.14741  
     axis -90 -7.62852e-016 -20   XYZ
    dof rx rz
    limits (-45.0 90.0)
           (-20.0 70.0)
  end
  begin
     id 10 
     name rtoes
     direction -1.53497e-011 -4.21924e-011 1   
     length 1.0706   
     axis -90 -7.62852e-016 -20   XYZ
    dof rx
    limits (-90.0 20.0)
  end
  begin
     id 11 
     name lowerback
     direction -0.0142066 0.998112 -0.0597545   
     length 1.86627   
     axis 0 0 0   XYZ
    dof rx ry rz
    limits (-20.0 45.0)
           (-30.0 30.0)
           (-30.0 30.0)
  end
  begin
     id 12 
     name upperback
     direction 0.00547294 0.999744 0.0219437   
     length 1.86272   
     axis 0 0 0   XYZ
    dof rx ry rz
    limits (-20.0 45.0)
           (-30.0 30.0)
           (-30.0 30.0)
  end
  begin
     id 13 
     name thorax
     direction 0.0116162 0.998704 0.0495538   
     length 1.8703   
     axis 0 0 0   XYZ
    dof rx ry rz
    limits (-20.0 45.0)
           (-30.0 30.0)
           (-30.0 30.0)
  end
  begin
     id 14 
     name lowerneck
     direction -0.0106574 0.998739 0.0490586   
     length 1.8074   
     axis 0 0 0   XYZ
    dof rx ry rz
    limits (-20.0 45.0)
           (-30.0 30.0)
           (-30.0 30.0)
  end
  begin
     id 15 
     name upperneck
     direction 0.030527 0.976587 -0.212944   
     length 1.80681   
     axis 0 0 0   XYZ
    dof rx ry rz
    limits (-20.0 45.0)
           (-30.0 30.0)
           (-30.0 30.0)
  end
  begin
     id 16
     name head
     direction 0.00869225 0.997035 -0.0764531  
     length 1.8313  
     axis 0 0 0   XYZ
    dof rx ry rz
    limits (-20.0 45.0)
           (-30.0 30.0)
           (-30.0 30.0)
  end
  begin
     id 17 
     name lclavicle
     direction 0.915958 0.399447 0.0382386  
     length 3.78965  
     axis 0 0 0   XYZ
    dof ry rz
    limits (-20.0 10.0)
           (0.0 20.0)
  end
  begin
     id 18 
     name lhumerus
     direction 1 -4.48967e-011 3.19303e-027   
     length 4.78095   
     axis -180 -30 -90   XYZ
    dof rx ry rz
    limits (-60.0 90.0)
           (-90.0 90.0)
           (-90.0 90.0)
  end
  begin
     id 19
     name lradius
     direction 1 -4.48967e-011 -3.77974e-027   
     length 3.58615   
     axis -180 -30 -90   XYZ
    dof rx
    limits (-10.0 170.0)
  end
  begin
     id 20
     name lwrist
     direction 1 -4.48927e-011 1.2807e-027   
     length 1.79307   
     axis 1.91374e-015 90 90   XYZ
    dof ry
    limits (-180.0 0.0)
 end
  begin
     id 21 
     name lhand
     direction 1 -4.49036e-011 2.5614e-027   
     length 0.659812   
     axis -1.63439e-015 90 90   XYZ
    dof rx rz
    limits (-90.0 90.0)
           (-45.0 45.0)
  end
  begin
     id 22 
     name lfingers
     direction 1 -4.49052e-011 5.1228e-027   
     length 0.531957   
     axis -3.26879e-015 90 90   XYZ
    dof rx
    limits (0.0 90.0)
  end
  begin
     id 23
     name lthumb
     direction 0.707107 -6.35012e-011 0.707107   
     length 0.763787   
     axis -90 45 2.85299e-015   XYZ
    dof rx rz
    limits (-45.0 45.0)
           (-45.0 45.0)
  end
  begin
     id 24 
     name rclavicle
     direction -0.895351 0.435135 0.0948887   
     length 3.70497  
     axis 0 0 0   XYZ 
    dof ry rz
    limits (-10.0 20.0)
           (-20.0 0.0)
  end
  begin
     id 25 
     name rhumerus
     direction -1 -4.48971e-011 2.38946e-027  
     length 4.48913   
     axis -180 30 90   XYZ
    dof rx ry rz
    limits (-90.0 60.0)
           (-90.0 90.0)
           (-90.0 90.0)
  end
  begin
     id 26 
     name rradius
     direction -1 -4.4895e-011 4.38668e-027   
     length 3.7051   
     axis -180 30 90   XYZ
    dof rx
    limits (-10.0 170.0)
  end
  begin
     id 27 
     name rwrist
     direction -1 -4.49007e-011 1.2807e-027   
     length 1.85255   
     axis 1.91374e-015 -90 -90   XYZ
    dof ry
    limits (-180.0 0.0)
  end
  begin
     id 28
     name rhand
     direction -1 -4.48851e-011 2.5614e-027   
     length 0.449136   
     axis -1.63439e-015 -90 -90   XYZ
    dof rx rz
    limits (-90.0 90.0)
           (-45.0 45.0)
  end
  begin
     id 29
     name rfingers
     direction -1 -4.49128e-011 5.1228e-027   
     length 0.362105   
     axis -3.26879e-015 -90 -90   XYZ
    dof rx
    limits (0.0 90.0)
  end
  begin
     id 30
     name rthumb
     direction -0.707107 -6.34851e-011 0.707107   
     length 0.519912   
     axis -90 -45 -2.85299e-015   XYZ
    dof rx rz
    limits (-45.0 45.0)
           (-45.0 45.0)
  end
:hierarchy
  begin
    root lhipjoint rhipjoint lowerback
    lhipjoint lfemur
    lfemur ltibia
    ltibia lfoot
    lfoot ltoes
    rhipjoint rfemur
    rfemur rtibia
    rtibia rfoot
    rfoot rtoes
    lowerback upperback
    upperback thorax
    thorax lowerneck lclavicle rclavicle
    lowerneck upperneck
    upperneck head
    lclavicle lhumerus
    lhumerus lradius
    lradius lwrist
    lwrist lhand lthumb
    lhand lfingers
    rclavicle rhumerus
    rhumerus rradius
    rradius rwrist
    rwrist rhand rthumb
    rhand rfingers
  end

#!OML:ASF I:\Actors\actors\Patient Classification 2\Patient 1\Session 1\actor1.ASF
:FULLY-SPECIFIED
:DEGREES
53
root -0.95943 18.1815 5.75745 0.510142 -3.83439 -3.14948
lowerback 0.879963 0.962058 1.14843
upperback -1.09045 1.30761 0.386807
thorax -1.59312 0.642091 -0.276438
lowerneck -9.21977 -1.8836 -1.90555
upperneck 22.8486 -3.32707 4.43192
head 8.74225 -1.28704 1.47947
rclavicle -7.33018e-016 -6.36111e-015
rhumerus -47.0993 -7.53831 -86.0997
rradius 39.9991
rwrist 24.983
rhand -6.54699 -26.6057
rfingers 7.12502
rthumb 19.3065 -55.6673
lclavicle -7.33018e-016 -6.36111e-015
lhumerus -41.786 8.06675 87.7074
lradius 37.0766
lwrist -13.7355
lhand -11.511 -33.5737
lfingers 7.12502
lthumb 14.5282 -4.10238
rfemur 8.23494 4.27 19.3761
rtibia 0
rfoot -18.0942 -10.163
rtoes 8.45076
lfemur 16.1719 -8.49062 -14.8198
ltibia -15.6905
lfoot -7.11159 24.8307
ltoes -9.07982
54
root -0.959396 18.1818 5.75838 0.525731 -3.81971 -3.13808
lowerback 0.863661 0.96774 1.1384
upperback -1.07693 1.3145 0.377695
thorax -1.57003 0.645765 -0.279842
lowerneck -9.26433 -1.91148 -1.99877
upperneck 22.9035 -3.36787 4.50459
head 8.77364 -1.30552 1.51573
rclavicle -1.54928e-014 -2.38542e-015
rhumerus -47.0804 -7.56829 -86.0962
rradius 40.0216
rwrist 24.9676
rhand -6.59119 -26.6036
rfingers 7.12502
rthumb 19.264 -55.6695
lclavicle -1.54928e-014 -2.38542e-015
lhumerus -41.764 8.05521 87.7248
lradius 37.0806
lwrist -13.7465
lhand -11.5355 -33.5621
lfingers 7.12502
lthumb 14.5045 -4.08913
rfemur 8.22032 4.25528 19.3624
rtibia -6.36111e-015
rfoot -18.0994 -10.1932
rtoes 8.15669
lfemur 16.1597 -8.50658 -14.8315
ltibia -15.696
lfoot -7.10967 24.8387
ltoes -9.06315
55
root -0.96057 18.1816 5.75929 0.546393 -3.80964 -3.15142
lowerback 0.831067 0.973971 1.12465
upperback -1.05877 1.32188 0.376171
thorax -1.53328 0.649861 -0.273036
lowerneck -9.23621 -1.92995 -1.99058
upperneck 22.8819 -3.39096 4.48978
head 8.76147 -1.31783 1.50698
rclavicle 1.68656e-014 -3.97569e-016
rhumerus -47.0297 -7.57908 -86.1048
rradius 40.0149
rwrist 24.97
rhand -6.64258 -26.5767
rfingers 7.12502
rthumb 19.2145 -55.6475
lclavicle 1.68656e-014 -3.97569e-016
lhumerus -41.735 7.98136 87.7529
lradius 37.085
lwrist -13.6646
lhand -11.5563 -33.5017
lfingers 7.12502
lthumb 14.4845 -4.0273
rfemur 8.20272 4.24362 19.382
rtibia -1.11319e-014
rfoot -18.0926 -10.2195
rtoes 7.8912
lfemur 16.1438 -8.50382 -14.8046
ltibia -15.7081
lfoot -7.14416 24.8187
ltoes -8.8498
56
root -0.961439 18.1815 5.7601 0.556724 -3.8207 -3.16673
lowerback 0.819516 0.982983 1.10527
upperback -1.043 1.33325 0.375258
thorax -1.5109 0.655926 -0.262961
lowerneck -9.10054 -1.92465 -1.92987
upperneck 22.7412 -3.38319 4.46365
head 8.68627 -1.31525 1.4888
rclavicle 1.8487e-014 3.97569e-016
rhumerus -46.981 -7.54718 -86.1385
rradius 40.0051
rwrist 24.954
rhand -6.66423 -26.6352
rfingers 7.12502
rthumb 19.1937 -55.708
lclavicle 1.8487e-014 3.97569e-016
lhumerus -41.7336 7.93924 87.7472
lradius 37.1067
lwrist -13.6407
lhand -11.5408 -33.4101
lfingers 7.12502
lthumb 14.4995 -3.93671
rfemur 8.19461 4.25382 19.4012
rtibia -2.70347e-014
rfoot -18.076 -10.2031
rtoes 7.92077
lfemur 16.1504 -8.46326 -14.7784
ltibia -15.732
lfoot -7.19633 24.7945
ltoes -8.56545
57
root -0.961447 18.1815 5.76037 0.565848 -3.83669 -3.19435
lowerback 0.843388 0.990446 1.11374
upperback -1.03474 1.34371 0.382034
thorax -1.51568 0.661097 -0.261346
lowerneck -9.04357 -1.91164 -1.89399
upperneck 22.6615 -3.36265 4.43981
head 8.64667 -1.30667 1.47672
rclavicle 6.77731e-015 -7.95139e-016
rhumerus -46.9438 -7.51683 -86.164
rradius 40.0138
rwrist 24.9194
rhand -6.6844 -26.6824
rfingers 7.12502
rthumb 19.1743 -55.7572
lclavicle 6.77731e-015 -7.95139e-016
lhumerus -41.7546 7.96359 87.7251
lradius 37.1421
lwrist -13.6899
lhand -11.5189 -33.3209
lfingers 7.12502
lthumb 14.5205 -3.84904
rfemur 8.18291 4.26943 19.431
rtibia -1.59028e-014
rfoot -18.1073 -10.1602
rtoes 8.20942
lfemur 16.1555 -8.43709 -14.7457
ltibia -15.7502
lfoot -7.19364 24.7911
ltoes -8.57356
58
root -0.961346 18.1822 5.76067 0.589794 -3.84013 -3.22478
lowerback 0.848417 0.992113 1.13218
upperback -1.02963 1.34638 0.391315
thorax -1.51304 0.662307 -0.262262
lowerneck -9.10295 -1.9088 -1.8652
upperneck 22.7187 -3.35548 4.39423
head 8.67577 -1.30387 1.45704
rclavicle -1.20451e-014 2.78299e-015
rhumerus -46.9168 -7.5041 -86.1827
rradius 40.0433
rwrist 24.8474
rhand -6.69185 -26.5847
rfingers 7.12502
rthumb 19.1672 -55.6602
lclavicle -1.20451e-014 2.78299e-015
lhumerus -41.7534 7.98172 87.717
lradius 37.147
lwrist -13.6988
lhand -11.5205 -33.2913
lfingers 7.12502
lthumb 14.5191 -3.81931
rfemur 8.15625 4.27178 19.4657
rtibia 6.36111e-015
rfoot -18.1303 -10.1512
rtoes 8.34536
lfemur 16.1389 -8.49102 -14.7137
ltibia -15.7617
lfoot -7.15212 24.8397
ltoes -8.81063
59
root -0.961225 18.1834 5.76166 0.610267 -3.84205 -3.22925
lowerback 0.84185 0.987412 1.12197
upperback -1.03071 1.33979 0.386299
thorax -1.51064 0.65911 -0.261432
lowerneck -9.14638 -1.90259 -1.81507
upperneck 22.8039 -3.35032 4.35436
head 8.71133 -1.29961 1.43574
rclavicle 7.36746e-015 1.19271e-015
rhumerus -46.9017 -7.46542 -86.2333
rradius 40.0615
rwrist 24.7671
rhand -6.62955 -26.5456
rfingers 7.12502
rthumb 19.2271 -55.6151
lclavicle 7.36746e-015 1.19271e-015
lhumerus -41.7506 7.94662 87.706
lradius 37.1272
lwrist -13.6366
lhand -11.5316 -33.3441
lfingers 7.12502
lthumb 14.5083 -3.87139
rfemur 8.13984 4.27356 19.4687
rtibia -1.59028e-014
rfoot -18.1306 -10.1655
rtoes 8.39741
lfemur 16.1262 -8.53419 -14.7117
ltibia -15.7714
lfoot -7.11999 24.8879
ltoes -8.9014
60
root -0.961357 18.1838 5.76314 0.616548 -3.83762 -3.22243
lowerback 0.854122 0.98388 1.1115
upperback -1.03908 1.33487 0.363292
thorax -1.52586 0.656526 -0.27935
lowerneck -9.12359 -1.8881 -1.72458
upperneck 22.8366 -3.33632 4.30289
head 8.71548 -1.29046 1.40479
rclavicle 1.2598e-014 3.97569e-016
rhumerus -46.8917 -7.46139 -86.2904
rradius 40.0497
rwrist 24.7288
rhand -6.57788 -26.5801
rfingers 7.12502
rthumb 19.2768 -55.6447
lclavicle 1.2598e-014 3.97569e-016
lhumerus -41.7808 7.85846 87.6847
lradius 37.1174
lwrist -13.5657
lhand -11.5665 -33.4086
lfingers 7.12502
lthumb 14.4748 -3.9335
rfemur 8.14005 4.26947 19.4591
rtibia -4.77083e-015
rfoot -18.1 -10.1905
rtoes 8.29011
lfemur 16.1221 -8.51103 -14.7176
ltibia -15.7683
lfoot -7.09964 24.8678
ltoes -8.92588
61
root -0.961736 18.1833 5.76409 0.615961 -3.82954 -3.2223
lowerback 0.875966 0.993125 1.10475
upperback -1.03366 1.34716 0.348163
thorax -1.5322 0.662637 -0.291675
lowerneck -9.11054 -1.8933 -1.66533
upperneck 22.8406 -3.34447 4.2594
head 8.71302 -1.29374 1.37931
rclavicle -6.60338e-015 5.96354e-015
rhumerus -46.8581 -7.53645 -86.2966
rradius 40.0335
rwrist 24.7669
rhand -6.52528 -26.5837
rfingers 7.12502
rthumb 19.3273 -55.6432
lclavicle -6.60338e-015 5.96354e-015
lhumerus -41.7926 7.81121 87.6745
lradius 37.118
lwrist -13.5677
lhand -11.554 -33.4025
lfingers 7.12502
lthumb 14.4868 -3.92825
rfemur 8.14595 4.26114 19.4604
rtibia 6.36111e-015
rfoot -18.0624 -10.2045
rtoes 8.16995
lfemur 16.1146 -8.51337 -14.7166
ltibia -15.7497
lfoot -7.14124 24.8588
ltoes -8.85596
62
root -0.961842 18.1835 5.76471 0.626952 -3.83368 -3.23177
lowerback 0.884838 1.00839 1.09748
upperback -1.01833 1.36736 0.346763
thorax -1.52134 0.672911 -0.289468
lowerneck -9.15391 -1.9196 -1.67128
upperneck 22.8756 -3.38218 4.26248
head 8.73457 -1.31061 1.37731
rclavicle -8.00729e-015 1.07344e-014
rhumerus -46.8039 -7.63141 -86.2658
rradius 39.9983
rwrist 24.8814
rhand -6.53512 -26.5535
rfingers 7.12502
rthumb 19.3179 -55.614
lclavicle -8.00729e-015 1.07344e-014
lhumerus -41.75 7.75591 87.6998
lradius 37.0908
lwrist -13.5326
lhand -11.495 -33.372
lfingers 7.12502
lthumb 14.5436 -3.90183
rfemur 8.13935 4.26489 19.4711
rtibia 1.43125e-014
rfoot -18.0496 -10.2093
rtoes 8.11378
lfemur 16.0939 -8.53824 -14.7065
ltibia -15.7281
lfoot -7.20228 24.887
ltoes -8.70271
